<svg width="22" height="22" viewBox="0 0 22 22" fill="none" xmlns="http://www.w3.org/2000/svg">
<path d="M13.7273 20.117V14.8189C13.7273 14.5847 13.6315 14.3601 13.461 14.1945C13.2905 14.0289 13.0593 13.9359 12.8182 13.9359H9.18182C8.94071 13.9359 8.70948 14.0289 8.53899 14.1945C8.36851 14.3601 8.27273 14.5847 8.27273 14.8189V20.117C8.27273 20.3512 8.17695 20.5758 8.00646 20.7414C7.83597 20.907 7.60474 21 7.36364 21H1.90909C1.66799 21 1.43675 20.907 1.26627 20.7414C1.09578 20.5758 1 20.3512 1 20.117V9.90713C1.00204 9.78493 1.02922 9.66435 1.07997 9.55251C1.13071 9.44067 1.20397 9.33982 1.29545 9.25591L10.3864 1.23151C10.554 1.08259 10.7729 1 11 1C11.2271 1 11.446 1.08259 11.6136 1.23151L20.7045 9.25591C20.796 9.33982 20.8693 9.44067 20.92 9.55251C20.9708 9.66435 20.998 9.78493 21 9.90713V20.117C21 20.3512 20.9042 20.5758 20.7337 20.7414C20.5632 20.907 20.332 21 20.0909 21H14.6364C14.3953 21 14.164 20.907 13.9935 20.7414C13.8231 20.5758 13.7273 20.3512 13.7273 20.117Z" stroke="#9FA9B3" stroke-width="2" stroke-linecap="round" stroke-linejoin="round"/>
</svg>
